<?xml version="1.0" encoding="utf-8"?>
<!-- Svg Vector Icons : http://www.onlinewebfonts.com/icon -->
<!DOCTYPE svg PUBLIC "-//W3C//DTD SVG 1.1//EN" "http://www.w3.org/Graphics/SVG/1.1/DTD/svg11.dtd">
<svg version="1.1" xmlns="http://www.w3.org/2000/svg" xmlns:xlink="http://www.w3.org/1999/xlink" x="0px" y="0px" viewBox="0 0 256 256" enable-background="new 0 0 256 256" xml:space="preserve">
<metadata> Svg Vector Icons : http://www.onlinewebfonts.com/icon </metadata>
<g><g><path fill="#000000" d="M128,10C62.8,10,10,62.8,10,128c0,65.2,52.8,118,118,118c65.2,0,118-52.8,118-118C246,62.8,193.2,10,128,10z M96.5,185H70.6v-83.7h25.9V185z M83.4,90.4c-8.5,0-15.3-6.9-15.3-15.4c0-8.5,6.9-15.4,15.3-15.4c8.5,0,15.3,6.9,15.3,15.4C98.8,83.5,91.9,90.4,83.4,90.4z M193.6,185h-25.8c0,0,0-31.9,0-43.9c0-12-4.6-18.8-14.1-18.8c-10.4,0-15.8,7-15.8,18.8c0,12.9,0,43.9,0,43.9h-24.8v-83.7h24.9v11.3c0,0,7.5-13.8,25.2-13.8s30.5,10.8,30.5,33.3C193.6,154.5,193.6,185,193.6,185z"/></g></g>
</svg>